<?xml version="1.0"?>
<svg xmlns="http://www.w3.org/2000/svg" viewBox="0 0 50 50">
    <path style="text-indent:0;text-align:start;line-height:normal;text-transform:none;block-progression:tb;-inkscape-font-specification:Sans" d="M 39.40625 2 L 39.40625 2.03125 C 35.26252 2.2967847 32.407447 4.8719731 30.46875 8.28125 C 28.421004 11.882295 27.200421 16.454635 26 20.71875 C 25.373102 22.945965 24.357199 26.197957 23.09375 29.03125 C 21.830301 31.864543 20.201442 34.203979 19.03125 34.75 C 17.737641 35.354313 15.1875 35.03125 15.1875 35.03125 L 14.8125 34.9375 L 14.5 35.125 C 14.5 35.125 12.572477 36.254488 10.34375 37.8125 C 8.1150226 39.370512 5.5857854 41.307466 4.1875 43.28125 C 3.6569568 44.030058 3.3490757 44.670892 3.1875 45.125 C 3.0259243 45.579108 3 45.96875 3 45.96875 L 2.96875 46.75 L 3.75 46.96875 C 3.75 46.96875 4.7807853 47.246302 7.53125 47.5 C 10.281715 47.753698 14.818218 48 22 48 C 29.264141 48 33.09699 46.869273 35.28125 44.90625 C 37.46551 42.943227 37.688001 40.341075 38.0625 38.25 C 38.648823 34.972268 38.974553 31.933133 39.34375 29.78125 C 39.43464 29.25149 39.526594 28.999542 39.625 28.59375 C 39.6317 28.63224 39.6495 28.64825 39.65625 28.6875 C 39.871309 29.937973 40.084885 31.563378 40.28125 33.34375 C 40.672834 36.894098 40.974448 41.04081 41 43.96875 C 41.000075 43.97735 40.99993 43.99145 41 44 L 42 44 L 43 44.03125 L 43 44 C 43.000953 43.96997 43.171027 38.290978 43.40625 32.15625 C 43.653393 25.703821 47 21.214582 47 16 C 47 11.84127 45.976265 8.4391372 44.65625 6.03125 C 43.996243 4.8273064 43.238707 3.8764934 42.5 3.1875 C 41.761293 2.4985066 41.039616 2 40.125 2 C 39.957054 2 39.788976 2.0239727 39.625 2.03125 C 39.552687 2.0243104 39.478789 2 39.40625 2 z M 39.5 4.03125 C 39.500421 4.0298866 39.538725 4.0378533 39.5625 4.1875 C 39.61843 4.5396103 39.50554 5.3533139 39.25 6.28125 C 38.738917 8.1371221 37.688404 10.514543 37 12.21875 C 34.982602 17.215744 33.989851 22.164934 33.46875 26.125 C 32.947649 30.085066 32.887559 33.148347 32.8125 33.9375 C 32.74069 34.692472 32.387565 35.807052 31.75 36.625 C 31.112435 37.442948 30.288752 38 29 38 C 26.428332 38 24.603317 37 21.96875 37 C 21.02112 37 19.795572 37.038422 18.6875 36.96875 C 19.080098 36.873269 19.477174 36.748346 19.875 36.5625 C 22.103808 35.522521 23.607199 32.826957 24.9375 29.84375 C 26.267801 26.860543 27.294398 23.534785 27.9375 21.25 C 29.142079 16.971115 30.366246 12.538955 32.21875 9.28125 C 33.963698 6.2126864 36.106828 4.250074 39.5 4.03125 z M 41.5625 5.0625 C 41.986784 5.5552773 42.444036 6.213864 42.875 7 C 44.024235 9.0963628 45 12.17573 45 16 C 45 19.704927 42.624342 23.836763 41.78125 29.4375 C 41.730149 29.102694 41.676689 28.644299 41.625 28.34375 C 41.512108 27.68733 41.397706 27.123788 41.28125 26.65625 C 41.164794 26.188712 41.068611 25.874864 40.84375 25.5 L 40.5625 25 L 40 25 C 39.510669 25 39.050794 25.256852 38.75 25.5625 C 38.449206 25.868148 38.253837 26.209024 38.09375 26.59375 C 37.773576 27.363203 37.569527 28.303691 37.375 29.4375 C 36.985947 31.705117 36.664427 34.715982 36.09375 37.90625 C 35.697249 40.120175 35.52224 41.982023 33.9375 43.40625 C 32.35276 44.830477 29.048859 46 22 46 C 14.864782 46 10.389035 45.746302 7.71875 45.5 C 5.9385598 45.335799 5.8383177 45.271814 5.40625 45.1875 C 5.5264581 44.94988 5.5693284 44.780712 5.8125 44.4375 C 6.8852146 42.923284 9.3449774 40.943988 11.5 39.4375 C 12.908654 38.452768 13.883648 37.85706 14.53125 37.46875 C 14.729804 37.729332 14.958674 37.960987 15.21875 38.125 C 15.888643 38.547457 16.669762 38.759254 17.46875 38.875 C 19.066727 39.106491 20.83239 39 21.96875 39 C 24.036183 39 25.953668 40 29 40 C 30.923248 40 32.419065 39.030052 33.34375 37.84375 C 34.268435 36.657448 34.703308 35.273028 34.8125 34.125 L 34.8125 34.03125 C 34.915451 32.891283 34.968705 30.206302 35.46875 26.40625 C 35.974899 22.559816 36.944398 17.750756 38.875 12.96875 C 39.538596 11.325957 40.609083 8.9128779 41.1875 6.8125 C 41.354215 6.2071144 41.504064 5.6194117 41.5625 5.0625 z" overflow="visible" font-family="Sans"/>
</svg>
